<svg  
height="100%" width="100%"
          xmlns:xlink="http://www.w3.org/1999/xlink" 
          version="1.1" 
          xmlns="http://www.w3.org/2000/svg" 
          viewBox="0 0 210 350" 
          fill="" 
          stroke="none"
          id="theblob">
          
        <linearGradient id="grad1" x1="0%" y1="0%" x2="100%" y2="0%">
          <stop offset="20%" style="stop-color:rgba(49, 24, 131, 0.9);stop-opacity:1" />
          <stop offset="74%" style="stop-color:rgba(72, 56, 149, 0.8);stop-opacity:1" />
        </linearGradient>
        <!-- <path id="blob1" fill="url(#grad1)" d="M31.3,-58.1C39.1,-49.7,42.9,-38.3,49.2,-28.2C55.5,-18,64.2,-9,69.7,3.1C75.1,15.3,77.2,30.6,70.9,40.7C64.6,50.8,49.8,55.7,36.6,61.7C23.4,67.6,11.7,74.4,-1.2,76.5C-14.1,78.5,-28.1,75.8,-41.2,69.8C-54.3,63.9,-66.5,54.6,-75.4,42.4C-84.3,30.3,-90,15.1,-90.9,-0.5C-91.8,-16.2,-88,-32.4,-78,-42.7C-68,-53,-51.8,-57.3,-37.8,-62.1C-23.7,-66.8,-11.9,-72.1,0,-72C11.8,-71.9,23.5,-66.5,31.3,-58.1Z" transform="translate(100 100)" /> -->
         <path id="blob2" fill="url(#grad1)" d="M28.9,-63.6C30.1,-49.4,18.7,-26.8,16.3,-14.8C14,-2.8,20.7,-1.4,20.4,-0.2C20,1,12.6,2,13.7,11.8C14.8,21.6,24.4,40.2,23.5,51.2C22.6,62.2,11.3,65.5,-1,67.2C-13.3,68.9,-26.6,69,-39.9,65.2C-53.3,61.5,-66.6,53.8,-75.4,42.3C-84.2,30.8,-88.5,15.4,-84,2.6C-79.5,-10.2,-66.3,-20.4,-51.9,-22.2C-37.5,-24.1,-21.9,-17.5,-13,-27.3C-4.2,-37.1,-2.1,-63.3,5.9,-73.5C13.9,-83.7,27.7,-77.9,28.9,-63.6Z" transform="translate(100 100)" />   
       </svg>